<?xml version="1.0" encoding="utf-8"?>
<!-- Svg Vector Icons : http://www.onlinewebfonts.com/icon -->
<!DOCTYPE svg PUBLIC "-//W3C//DTD SVG 1.1//EN" "http://www.w3.org/Graphics/SVG/1.1/DTD/svg11.dtd">
<svg version="1.1" xmlns="http://www.w3.org/2000/svg" xmlns:xlink="http://www.w3.org/1999/xlink" x="0px" y="0px" viewBox="0 0 800 1000" enable-background="new 0 0 1000 1000" xml:space="preserve">
<metadata> Svg Vector Icons : http://www.onlinewebfonts.com/icon </metadata>
<g><g><path d="M690.2,816.7c25.2-43.4,65.5-291.6-261.2-404.6c2-70.6-42.3-173.5-76.6-211.9c0,0-12.1-57.5-16.1-78.7c-4-21.2-41.3-79.7-72.6-85.7c0,0-13.1,45.4-9.1,63.5c0,0-43.4-42.9-70.1-42.6c0,0-5.8,51.5,0.2,59.6c0,0-48.3,32.8-44.2,55c0,0-147.2,50.7-129,72.9c0,0,12.6,19.3,26.3,25.3c0,0,28.8,56,111.9,53c62.8,2.3,32.5,15.9,30.3,36.3c-2.3,20.4,3.8,54.5,3,67.3s-22.7,80.2,0.8,156.5c23.4,76.4-21.9,296.2-50.7,311.3c-28.7,15.1-46.9,57.2-22.7,57.2h127c0,0,19.2-30.7,35.8-31.7c16.6-1,21.7-51.2,20.7-64.8c-1-13.6,9.8-106.2,0.1-145.6c-9.7-39.3,2.4-49.6,7.7-51.1c5.3-1.5-14.4-48.6-51.4-22.1c-16.5,10.1-37.1-27.7-37.1-27.7s-2-11,9.9-17.1c10.4-17.1-25.7-28,24.2-66.6c-2.3-24.2,13.2-49.2,19.7-54.1c0,0,8.3,1.9,10.6,7.6c0,0,10.4-26.9,25-26.9c14.7,0,28.6,35.3,31.7,56c0,0,99.8,29.7,113.9,161.8c0,0,77.7,14.1,99.8,55.5c0,0,11.7-50.1,26.2-77.7c12.3-23.4,16.1-83.7-39.3-80.7c-55.4,3-26.9,44.9-24.2,51.4c7,16.6-5.2,48.5-37.3,31.3c-32.1-17.2-20.2-121,60.5-131.1c80.7-10.1,104.9,68.6,89.7,128.1c-15.1,59.5-45.4,98.3-32.3,133.6c13.1,35.3,39.3,134.2-53.4,171.9h38.3c0,0,68.6-42.8,71.6-57c3-14.1,196.6,157.6,323.7,8.3c39.9-54.1,3-134,0-140C968.5,756.7,865.7,873.2,690.2,816.7z"/><path d="M390.3,834.9c-4.5-9.8-31.8-5.8-31.8-5.8c-3,41.6-50.7,122.3-50.7,122.3h31c5.3-75.4,87.7-19.3,65-49.5C381.2,871.6,394.8,844.8,390.3,834.9z"/></g><g></g><g></g><g></g><g></g><g></g><g></g><g></g><g></g><g></g><g></g><g></g><g></g><g></g><g></g><g></g></g>
</svg>